<svg width="44" height="44" viewBox="0 0 44 44" fill="none" xmlns="http://www.w3.org/2000/svg">
<g opacity="0.6" clip-path="url(#clip0_78_128)">
<path fill-rule="evenodd" clip-rule="evenodd" d="M22 0C34.1733 0 44 9.82667 44 22C44 34.1733 34.1733 44 22 44C9.82667 44 0 34.1733 0 22C0 9.82667 9.82667 0 22 0ZM22 2.05333C33 2.05333 41.9467 11 41.9467 22C41.9467 33 33 41.9467 22 41.9467C11 41.9467 2.05333 33 2.05333 22C2.05333 11 11 2.05333 22 2.05333ZM22 4.10667C31.9 4.10667 39.8933 12.1 39.8933 22C39.8933 31.9 31.9 39.8933 22 39.8933C12.1 39.8933 4.10667 31.9 4.10667 22C4.10667 12.1 12.1 4.10667 22 4.10667ZM13.5667 29.04H10.9267V19.0667C9.97333 20.02 8.87333 20.68 7.55333 21.12V18.7C8.28667 18.48 9.02 18.04 9.82667 17.4533C10.6333 16.7933 11.1467 16.06 11.44 15.2533H13.5667V29.04ZM19.8 21.6333C19.14 21.34 18.6267 20.9 18.3333 20.46C17.9667 19.9467 17.82 19.36 17.82 18.7733C17.82 17.7467 18.1867 16.94 18.92 16.2067C19.6533 15.5467 20.6067 15.2533 21.9267 15.2533C23.2467 15.2533 24.2733 15.5467 25.0067 16.2067C25.74 16.94 26.0333 17.7467 26.0333 18.7733C26.0333 19.4333 25.8867 19.9467 25.5933 20.46C25.2267 20.9733 24.7867 21.34 24.2 21.6333C24.9333 21.9267 25.52 22.3667 25.8867 22.9533C26.3267 23.54 26.4733 24.2 26.4733 25.0067C26.4733 26.2533 26.1067 27.28 25.3 28.0867C24.4933 28.8933 23.3933 29.26 22.0733 29.26C20.8267 29.26 19.8 28.9667 18.9933 28.3067C17.9667 27.5 17.5267 26.4733 17.5267 25.08C17.5267 24.3467 17.6733 23.6867 18.04 23.0267C18.4067 22.44 18.9933 21.9267 19.8 21.6333ZM20.3133 18.9933C20.3133 19.5067 20.46 19.8733 20.7533 20.1667C21.0467 20.46 21.4867 20.6067 21.9267 20.6067C22.44 20.6067 22.88 20.46 23.1733 20.1667C23.4667 19.8733 23.6133 19.5067 23.6133 18.9933C23.6133 18.48 23.4667 18.04 23.1733 17.7467C22.88 17.4533 22.44 17.3067 22 17.3067C21.4867 17.3067 21.0467 17.4533 20.7533 17.7467C20.46 18.04 20.3133 18.48 20.3133 18.9933ZM20.0933 24.86C20.0933 25.5933 20.24 26.18 20.6067 26.5467C21.0467 26.9867 21.4867 27.2067 22 27.2067C22.5867 27.2067 23.0267 26.9867 23.3933 26.5467C23.6867 26.18 23.9067 25.5933 23.9067 24.86C23.9067 24.2 23.6867 23.6867 23.3933 23.32C23.0267 22.9533 22.5133 22.7333 22 22.7333C21.34 22.7333 20.9 22.9533 20.5333 23.3933C20.24 23.8333 20.0933 24.3467 20.0933 24.86ZM31.7533 27.06V23.4667H28.16V21.0467H31.7533V17.4533H34.1733V21.0467H37.7667V23.4667H34.1733V27.06H31.7533Z" fill="white"/>
</g>
<defs>
<clipPath id="clip0_78_128">
<rect width="44" height="44" fill="white"/>
</clipPath>
</defs>
</svg>
