<svg width="250" height="52" viewBox="0 0 250 52" fill="none" xmlns="http://www.w3.org/2000/svg">
<g clip-path="url(#clip0_111_206)">
<path fill-rule="evenodd" clip-rule="evenodd" d="M249.361 31.63C249.355 26.2294 247.207 21.0516 243.388 17.2328C239.569 13.4139 234.392 11.2659 228.991 11.26H146.447C141.045 11.26 135.863 13.4061 132.043 17.2263C128.223 21.0464 126.077 26.2276 126.077 31.63C126.077 37.0325 128.223 42.2137 132.043 46.0338C135.863 49.8539 141.045 52 146.447 52H228.991C234.392 51.9941 239.569 49.8461 243.388 46.0273C247.207 42.2085 249.355 37.0307 249.361 31.63Z" fill="#FAE700"/>
<path fill-rule="evenodd" clip-rule="evenodd" d="M0.0224609 32.2285V3.41351C0.0224609 2.48469 0.391428 1.5939 1.04821 0.937122C1.70498 0.280345 2.59576 -0.088623 3.52458 -0.088623C4.4534 -0.088623 5.34419 0.280345 6.00097 0.937122C6.65775 1.5939 7.02671 2.48469 7.02671 3.41351V17.4664C10.1717 15.1001 14.0191 13.8562 17.9542 13.9337C21.8892 14.0111 25.6847 15.4054 28.7342 17.8936C31.7837 20.3818 33.9111 23.8204 34.7765 27.6599C35.6419 31.4993 35.1953 35.5181 33.5082 39.0739C31.821 42.6297 28.9907 45.5175 25.4694 47.2755C21.9481 49.0336 17.9391 49.5606 14.083 48.7724C10.227 47.9841 6.74645 45.926 4.19761 42.927C1.64878 39.928 0.17876 36.1612 0.0224609 32.2285ZM101.562 13.9642C105.041 13.9511 108.446 14.9708 111.345 16.8941C114.245 18.8175 116.508 21.5581 117.849 24.7687C119.189 27.9793 119.547 31.5156 118.876 34.9296C118.205 38.3436 116.537 41.4818 114.081 43.9466C111.625 46.4115 108.494 48.0922 105.082 48.7758C101.671 49.4594 98.1332 49.1153 94.9175 47.7869C91.7019 46.4585 88.9527 44.2056 87.0184 41.3136C85.084 38.4216 84.0514 35.0207 84.0514 31.5414C84.0455 26.8894 85.8864 22.4252 89.1697 19.1295C92.4529 15.8338 96.9101 13.976 101.562 13.9642ZM70.0429 45.5943C66.879 47.9766 63.0032 49.2205 59.0438 49.1245C55.0844 49.0285 51.2735 47.5981 48.2288 45.0652C45.1841 42.5322 43.084 39.0453 42.269 35.1695C41.4541 31.2937 41.9719 27.2563 43.7386 23.7116C45.5054 20.167 48.4174 17.3229 52.0028 15.6403C55.5882 13.9578 59.6367 13.5355 63.4922 14.4418C67.3477 15.3481 70.784 17.5299 73.2444 20.6335C75.7047 23.7372 77.0447 27.5809 77.0472 31.5414V45.5943C77.0472 46.0542 76.9566 46.5096 76.7806 46.9345C76.6046 47.3594 76.3466 47.7455 76.0214 48.0707C75.6962 48.3959 75.3101 48.6538 74.8852 48.8298C74.4603 49.0058 74.0049 49.0964 73.545 49.0964C73.0851 49.0964 72.6297 49.0058 72.2048 48.8298C71.7799 48.6538 71.3939 48.3959 71.0687 48.0707C70.7435 47.7455 70.4855 47.3594 70.3095 46.9345C70.1335 46.5096 70.0429 46.0542 70.0429 45.5943ZM17.5109 21.1458C19.6005 21.1371 21.6456 21.749 23.3869 22.9039C25.1283 24.0589 26.4875 25.7049 27.2922 27.6333C28.0969 29.5617 28.3109 31.6856 27.907 33.7358C27.5031 35.7859 26.4996 37.67 25.0236 39.1491C23.5476 40.6282 21.6657 41.6357 19.6164 42.0439C17.5671 42.4521 15.4427 42.2426 13.5126 41.442C11.5825 40.6413 9.93364 39.2856 8.77501 37.5467C7.61638 35.8078 7.00019 33.764 7.00456 31.6744C7.00455 28.8859 8.11076 26.2113 10.0805 24.2374C12.0502 22.2636 14.7224 21.1517 17.5109 21.1458ZM101.562 21.1458C103.652 21.1371 105.697 21.749 107.438 22.9039C109.179 24.0589 110.539 25.7049 111.343 27.6333C112.148 29.5617 112.362 31.6856 111.958 33.7358C111.554 35.7859 110.551 37.67 109.075 39.1491C107.599 40.6282 105.717 41.6357 103.667 42.0439C101.618 42.4521 99.4938 42.2426 97.5637 41.442C95.6336 40.6413 93.9847 39.2856 92.8261 37.5467C91.6675 35.8078 91.0513 33.764 91.0557 31.6744C91.0557 28.8859 92.1619 26.2113 94.1316 24.2374C96.1013 22.2636 98.7736 21.1517 101.562 21.1458ZM59.4478 21.1458C61.5374 21.1371 63.5825 21.749 65.3238 22.9039C67.0652 24.0589 68.4244 25.7049 69.2291 27.6333C70.0338 29.5617 70.2478 31.6856 69.8439 33.7358C69.44 35.7859 68.4365 37.67 66.9605 39.1491C65.4845 40.6282 63.6026 41.6357 61.5533 42.0439C59.504 42.4521 57.3796 42.2426 55.4495 41.442C53.5194 40.6413 51.8705 39.2856 50.7119 37.5467C49.5533 35.8078 48.9371 33.764 48.9415 31.6744C48.9415 28.8859 50.0477 26.2113 52.0174 24.2374C53.987 22.2636 56.6593 21.1517 59.4478 21.1458Z" fill="white"/>
<path d="M152.83 39.0333C153.81 39.0394 154.781 38.8461 155.684 38.4651C156.588 38.084 157.404 37.5232 158.083 36.8168C158.198 36.6997 158.288 36.5611 158.349 36.4089C158.41 36.2567 158.44 36.094 158.438 35.9301C158.438 35.595 158.305 35.2737 158.068 35.0368C157.831 34.7998 157.51 34.6667 157.174 34.6667C157.004 34.6671 156.835 34.7027 156.678 34.7714C156.522 34.84 156.382 34.9402 156.266 35.0657C155.827 35.5394 155.296 35.9177 154.705 36.1771C154.114 36.4364 153.475 36.5711 152.83 36.5729C151.525 36.5729 150.273 36.0545 149.351 35.1317C148.428 34.2089 147.909 32.9573 147.909 31.6522C147.909 30.3472 148.428 29.0956 149.351 28.1727C150.273 27.2499 151.525 26.7315 152.83 26.7315C153.475 26.7333 154.114 26.8681 154.705 27.1274C155.296 27.3867 155.827 27.765 156.266 28.2387C156.382 28.3642 156.522 28.4644 156.678 28.533C156.835 28.6017 157.004 28.6373 157.174 28.6377C157.51 28.6377 157.831 28.5046 158.068 28.2677C158.305 28.0307 158.438 27.7094 158.438 27.3743C158.44 27.2104 158.41 27.0477 158.349 26.8955C158.288 26.7433 158.198 26.6047 158.083 26.4877C157.404 25.7812 156.588 25.2204 155.684 24.8394C154.781 24.4583 153.81 24.265 152.83 24.2711C150.867 24.2711 148.983 25.0511 147.595 26.4395C146.207 27.8279 145.427 29.7109 145.427 31.6744C145.427 33.6378 146.207 35.5209 147.595 36.9093C148.983 38.2976 150.867 39.0776 152.83 39.0776V39.0333Z" fill="#341656"/>
<path d="M173.422 37.0384L168.124 25.0691C168.026 24.8354 167.862 24.6357 167.651 24.4953C167.44 24.3549 167.192 24.28 166.938 24.28C166.685 24.28 166.437 24.3549 166.226 24.4953C166.015 24.6357 165.85 24.8354 165.753 25.0691L160.455 37.0384C160.387 37.1942 160.35 37.3618 160.346 37.5319C160.342 37.7019 160.372 37.871 160.434 38.0295C160.496 38.188 160.588 38.3328 160.706 38.4556C160.824 38.5783 160.964 38.6768 161.12 38.7452C161.276 38.8136 161.443 38.8506 161.613 38.8542C161.784 38.8578 161.953 38.8279 162.111 38.7662C162.27 38.7044 162.414 38.612 162.537 38.4943C162.66 38.3767 162.758 38.2359 162.827 38.0802L163.869 35.6642H170.119L171.183 38.0802C171.319 38.3909 171.573 38.6351 171.888 38.7597C172.204 38.8842 172.556 38.879 172.868 38.7452C173.18 38.6044 173.425 38.3468 173.549 38.0276C173.673 37.7085 173.667 37.3533 173.533 37.0384H173.422ZM164.999 33.093L166.95 28.6599L168.878 33.093H164.999Z" fill="#341656"/>
<path d="M182.421 39.0333C184.504 39.0333 188.228 38.2132 188.228 34.711C188.228 31.2089 185.103 30.8764 182.421 30.2779C180.647 29.9455 179.45 29.7903 179.45 28.6155C179.45 27.4408 180.293 26.5985 182.443 26.5985C183.783 26.6264 185.094 26.9924 186.255 27.6624C186.433 27.7579 186.63 27.811 186.831 27.8176C187.159 27.8119 187.471 27.6793 187.703 27.4477C187.934 27.2162 188.067 26.9038 188.073 26.5763C188.072 26.3515 188.012 26.1309 187.899 25.9364C187.786 25.742 187.625 25.5805 187.43 25.4681C185.945 24.6311 184.279 24.1671 182.576 24.116C180.005 24.116 176.879 25.4016 176.879 28.7264C176.879 32.0512 180.226 32.6718 182.421 33.0265C184.615 33.3811 185.657 33.5806 185.657 34.6889C185.657 36.1739 183.44 36.4399 182.509 36.4399C181.102 36.3814 179.728 35.9943 178.497 35.3095C178.307 35.21 178.095 35.1613 177.881 35.1682C177.667 35.1752 177.458 35.2375 177.275 35.3491C177.092 35.4607 176.941 35.6177 176.836 35.805C176.732 35.9923 176.678 36.2034 176.68 36.4178C176.682 36.6393 176.743 36.8562 176.856 37.0468C176.969 37.2374 177.13 37.3951 177.323 37.5039C178.879 38.3898 180.63 38.8771 182.421 38.9225V39.0333Z" fill="#341656"/>
<path d="M193.304 38.8781C193.645 38.8781 193.972 38.7426 194.213 38.5015C194.454 38.2604 194.59 37.9334 194.59 37.5925V25.8005C194.59 25.4595 194.454 25.1325 194.213 24.8914C193.972 24.6503 193.645 24.5149 193.304 24.5149C192.963 24.5149 192.636 24.6503 192.395 24.8914C192.154 25.1325 192.019 25.4595 192.019 25.8005V37.5925C192.019 37.9334 192.154 38.2604 192.395 38.5015C192.636 38.7426 192.963 38.8781 193.304 38.8781Z" fill="#341656"/>
<path d="M210.15 24.4484C209.809 24.4484 209.482 24.5838 209.241 24.8249C208.999 25.066 208.864 25.393 208.864 25.734V34.2233L200.707 24.9803L200.53 24.7808C200.303 24.5988 200.023 24.4974 199.732 24.4927C199.391 24.4927 199.064 24.6281 198.823 24.8692C198.582 25.1103 198.446 25.4373 198.446 25.7783V37.5703C198.446 37.9112 198.582 38.2382 198.823 38.4793C199.064 38.7204 199.391 38.8559 199.732 38.8559C200.073 38.8559 200.4 38.7204 200.641 38.4793C200.882 38.2382 201.017 37.9112 201.017 37.5703V29.0144L209.064 38.1466C209.172 38.3613 209.336 38.5427 209.539 38.6715C209.742 38.8003 209.976 38.8716 210.216 38.878C210.559 38.8722 210.886 38.7319 211.127 38.4872C211.367 38.2426 211.502 37.9133 211.502 37.5703V25.7783C211.502 25.4373 211.366 25.1103 211.125 24.8692C210.884 24.6281 210.557 24.4927 210.216 24.4927L210.15 24.4484Z" fill="#341656"/>
<path d="M222.496 39.0333C223.957 39.0201 225.382 38.5748 226.591 37.7534C227.8 36.932 228.738 35.7712 229.288 34.4173C229.838 33.0635 229.975 31.577 229.682 30.1454C229.389 28.7137 228.679 27.4008 227.641 26.3721C226.603 25.3433 225.284 24.6448 223.85 24.3645C222.415 24.0842 220.93 24.2347 219.581 24.7969C218.232 25.3591 217.08 26.308 216.27 27.524C215.459 28.7399 215.026 30.1686 215.026 31.63C215.038 33.6014 215.831 35.4877 217.231 36.8754C218.631 38.2632 220.525 39.0392 222.496 39.0333ZM222.496 36.5507C221.523 36.5507 220.572 36.2621 219.762 35.7214C218.953 35.1807 218.322 34.4122 217.95 33.5131C217.578 32.6139 217.48 31.6246 217.67 30.67C217.86 29.7155 218.328 28.8387 219.017 28.1505C219.705 27.4623 220.582 26.9937 221.536 26.8038C222.491 26.614 223.48 26.7114 224.379 27.0838C225.278 27.4563 226.047 28.087 226.588 28.8962C227.128 29.7054 227.417 30.6568 227.417 31.63C227.42 32.277 227.294 32.9182 227.048 33.5165C226.802 34.1149 226.44 34.6585 225.982 35.116C225.525 35.5735 224.981 35.9359 224.383 36.1821C223.784 36.4284 223.143 36.5536 222.496 36.5507Z" fill="#341656"/>
</g>
<defs>
<clipPath id="clip0_111_206">
<rect width="249.361" height="52" fill="white"/>
</clipPath>
</defs>
</svg>
