<svg width="47" height="28" viewBox="0 0 47 28" fill="none" xmlns="http://www.w3.org/2000/svg">
<g opacity="0.6" clip-path="url(#clip0_78_134)">
<path fill-rule="evenodd" clip-rule="evenodd" d="M20.2544 14.0693H22.6277C22.6975 13.3762 22.5579 12.8218 21.8599 12.6832C20.8827 12.5446 20.394 13.1683 20.2544 14.0693ZM29.8173 12.8218H29.7475C28.9797 12.7525 28.1421 12.4752 27.444 12.8911C27.0252 13.1683 27.095 13.5149 27.444 13.8614C28.1421 14.2772 28.7703 14.1386 29.3985 14.8317C30.3757 16.2178 29.4683 17.8119 28.0025 18.297C26.9554 18.505 25.2802 18.4356 24.2332 18.0891L24.5124 16.6337C25.4198 16.8416 25.9782 16.9802 26.8856 16.9109C27.7931 16.7723 28.0025 15.9406 27.0252 15.5248C26.2574 15.2475 25.699 15.0396 25.2802 14.4158C24.9312 13.6535 25.0708 12.5446 25.5594 11.9208C26.5366 10.9505 28.7703 11.0891 30.0267 11.297H30.1663L29.8173 12.8218ZM32.8886 0C40.7064 0 46.9886 6.23762 46.9886 14C46.9886 21.7624 40.7064 28 32.8886 28C26.397 28 20.9525 23.703 19.2772 17.7426C20.5336 18.505 22.4881 18.7129 23.8143 18.0198L24.0935 16.4257C22.8371 17.1188 19.9054 17.2574 19.9752 15.4554V15.3168H24.303C24.7218 12.9604 24.5124 11.3663 21.8599 11.1584C20.9525 11.1584 20.1846 11.297 19.4168 11.8515L19.2772 11.9901L19.1376 12.1287L18.998 12.2673C18.998 12.3366 18.9282 12.4059 18.8584 12.4752C19.6262 5.47525 25.6292 0 32.8886 0ZM33.7262 18.3663H35.6109L36.2391 14.6238C36.3089 14.3465 36.3787 14.0693 36.5183 13.7921C36.8673 13.2376 37.6351 13.0297 38.2633 13.099H38.3331V13.0297L38.403 12.8911V12.7525L38.4728 12.5446C38.5426 12.2673 38.6124 11.9901 38.752 11.7822L38.8218 11.6436L38.8916 11.505V11.4356L38.9614 11.3663L39.0312 11.297H38.9614V11.2277C37.9841 11.0891 37.2861 11.6436 36.7277 12.4059L36.8673 11.297H34.9827L33.7262 18.3663ZM44.1965 11.9208C45.5926 13.0297 45.7322 15.1089 44.9643 16.6337C43.7079 19.1287 39.5198 19.198 38.3331 16.6337C37.6351 14.7624 38.2633 12.3366 40.2178 11.505C41.4742 11.0198 43.0797 11.0891 44.1965 11.9208ZM40.4272 15.7327C40.7762 17.0495 42.2421 16.8416 42.8703 15.7327C43.0797 15.1089 43.2193 14.4158 43.1495 13.7228C42.8005 12.3366 41.3346 12.6139 40.7064 13.7228C40.4272 14.3465 40.2876 15.0396 40.4272 15.7327ZM31.353 9.70297H33.2376L32.8886 11.297H34.0752L33.796 12.8218L32.6094 12.7525L31.9812 16.4257C31.9812 16.7723 32.051 16.8416 32.3302 16.9109C32.6792 16.9802 33.098 16.9802 33.3772 16.8416H33.447L33.2376 18.0891C32.6792 18.4356 31.702 18.4356 31.0737 18.3663C30.1663 18.1584 29.9569 17.8119 30.0965 16.9109L31.353 9.70297ZM44.6851 18.0198H45.2435V18.0891H45.0341V18.5743H44.8945V18.0891H44.6851V18.0198ZM45.3133 18.0198H45.4529L45.6624 18.4356L45.8718 18.0198H46.0114V18.5743H45.8718V18.1584L45.7322 18.5743H45.5926L45.4529 18.1584V18.5743H45.3133V18.0198Z" fill="white"/>
<path fill-rule="evenodd" clip-rule="evenodd" d="M14.1117 0C18.23 0 21.9295 1.73267 24.5122 4.50495H22.4182L21.7899 5.33663H25.2102L25.8385 6.16832H21.1617L20.6033 7H26.3271C26.4667 7.27723 26.6761 7.55446 26.8157 7.90099H20.1845L19.7657 8.66337H27.1647C27.3043 8.94059 27.3741 9.21782 27.5137 9.56436H19.4865L19.2771 10.3267H27.7231L27.9325 11.1584C27.7231 11.1584 27.5137 11.1584 27.2345 11.2277H22.1389C22.0691 11.2277 21.9993 11.1584 21.8597 11.1584C21.6503 11.1584 21.5107 11.1584 21.3013 11.2277H18.9979L18.8583 11.9901H19.2771L19.1375 12.1287L18.9979 12.2673C17.9508 13.5149 17.6018 15.7327 18.579 17.1188C18.7885 17.396 19.0677 17.604 19.3469 17.8119L19.5563 18.3663H21.1617C21.6503 18.4356 22.1389 18.4356 22.6276 18.3663H25.9083C26.2573 18.4356 26.6761 18.4356 27.0251 18.3663H27.5137C27.3741 18.7129 27.3043 19.0594 27.1647 19.3366H19.8355L20.2543 20.099H26.8157C26.6063 20.4455 26.4667 20.7921 26.2573 21.0693H20.7429L21.2315 21.901H25.7686C25.5592 22.1782 25.3498 22.5248 25.0706 22.802H21.8597L22.488 23.5644H24.4424C21.8597 26.2673 18.1602 28 14.1117 28C6.2939 28 0.0117188 21.7624 0.0117188 14C0.0117188 6.23762 6.2939 0 14.1117 0ZM23.9538 11.9901H25.5592C25.3498 12.198 25.2102 12.5446 25.1404 12.8218H24.3726C24.3028 12.4752 24.1632 12.198 23.9538 11.9901ZM28.1419 12.6832V12.8218H27.5137C27.7231 12.7525 27.9325 12.6832 28.1419 12.6832ZM22.2087 12.8218H20.9523C21.1617 12.6832 21.5107 12.6139 21.8597 12.6832C21.9993 12.6832 22.1389 12.7525 22.2087 12.8218ZM20.3241 13.5842H22.6276V14.0693H20.2543C20.2543 13.9307 20.3241 13.7228 20.3241 13.5842ZM24.4424 13.5842H25.0706C25.0706 13.8614 25.1404 14.1386 25.28 14.4158H24.4424V13.5842ZM27.2345 13.5842H28.2117V14.1386C28.0023 14.0693 27.7231 14 27.4439 13.8614C27.3741 13.7921 27.3043 13.7228 27.2345 13.5842ZM24.3028 15.1782H26.2573C26.4667 15.3168 26.7459 15.3861 27.0251 15.5248C27.3043 15.6634 27.5137 15.802 27.5835 16.0099H20.0449C19.9751 15.802 19.9751 15.6634 19.9751 15.4554V15.3168H24.3028V15.1782ZM21.0221 16.7723H23.0464C22.4182 16.9109 21.5805 16.9802 21.0221 16.7723ZM24.0236 16.7723H24.4424L24.3028 17.604H23.884L24.0236 16.7723ZM25.1404 16.7723H27.3741C27.2345 16.8416 27.0949 16.9109 26.8855 16.9109C26.2573 16.9802 25.7686 16.9109 25.1404 16.7723ZM17.3924 16.9109L17.1132 18.3663H15.438L15.5078 18.2277V17.8812L15.5776 17.8119V17.604L15.5078 17.7426C14.6003 18.5743 13.0647 18.7822 12.0177 18.0198C10.831 16.9109 11.3894 15.1782 12.6459 14.3465L12.8553 14.2772C13.8325 13.8614 14.9493 13.9307 15.9964 13.9307L16.0662 13.8614C16.2058 13.2376 15.8568 12.8218 15.2285 12.7525C14.6003 12.7525 12.9251 12.8218 12.4365 13.099L12.9251 11.5743C13.7627 11.1584 15.2984 11.1584 16.2756 11.297C17.3924 11.5743 18.2998 12.1287 18.0904 13.4455L17.3924 16.9109ZM15.787 15.1782C15.787 15.1089 15.787 15.1089 15.6474 15.1089C15.0889 15.0396 14.3211 15.1782 13.8325 15.5248C13.3439 15.9406 13.2043 16.7723 13.9023 16.9109C14.5305 16.9802 15.1587 16.8416 15.5078 16.2871C15.7172 15.9406 15.7172 15.5941 15.787 15.1782ZM3.36221 18.3663H1.54736L3.08301 9.70297H6.2939L6.5731 14.901L8.73697 9.70297H12.0177L10.482 18.3663H8.66716L9.784 11.9208H9.71419L7.06172 18.3663H4.96766C4.82806 16.2178 4.75825 14.0693 4.61865 11.9208H4.54885L3.36221 18.3663Z" fill="white"/>
<path d="M44.6846 18.0198H45.243V18.0891H45.0336V18.5742H44.894V18.0891H44.6846V18.0198Z" stroke="white" stroke-width="0.474189"/>
<path fill-rule="evenodd" clip-rule="evenodd" d="M45.3135 18.0198H45.4531L45.6625 18.4356L45.8719 18.0198H46.0115V18.5742H45.8719V18.1584L45.7323 18.5742H45.5927L45.4531 18.1584V18.5742H45.3135V18.0198Z" fill="white"/>
</g>
<defs>
<clipPath id="clip0_78_134">
<rect width="47" height="28" fill="white"/>
</clipPath>
</defs>
</svg>
