<svg width="130" height="23" viewBox="0 0 130 23" fill="none" xmlns="http://www.w3.org/2000/svg">
<g opacity="0.6" clip-path="url(#clip0_78_139)">
<path fill-rule="evenodd" clip-rule="evenodd" d="M18.3484 2.4201C18.2023 2.53467 18.0593 2.65269 17.9194 2.77385C15.5298 4.84583 14.0172 7.89589 14.0172 11.3C14.0172 14.7038 15.5298 17.7539 17.9194 19.8259C18.0596 19.9472 18.2026 20.0651 18.3484 20.1796C18.4943 20.0651 18.6373 19.9472 18.7775 19.8259C21.1671 17.7539 22.6797 14.7038 22.6797 11.3C22.6797 7.89589 21.1671 4.84583 18.7775 2.77385C18.6374 2.65245 18.4943 2.5345 18.3484 2.4201ZM25.3569 1.3831e-05C23.1229 -0.00347652 20.9381 0.653717 19.0792 1.88837C19.1712 1.96339 19.2641 2.03747 19.3533 2.11468C20.6726 3.25695 21.7306 4.66803 22.4558 6.25262C23.181 7.83722 23.5565 9.55843 23.557 11.3C23.5563 13.0415 23.1808 14.7626 22.4557 16.3471C21.7306 17.9316 20.6727 19.3427 19.3536 20.485C19.2648 20.5616 19.1712 20.636 19.0792 20.7113C20.9381 21.946 23.1229 22.6032 25.3569 22.5997C31.6197 22.5997 36.6969 17.5404 36.6969 11.3C36.6969 5.05896 31.6197 1.3831e-05 25.3569 1.3831e-05ZM17.3436 20.485C17.4321 20.5616 17.5257 20.636 17.6176 20.7113C15.7588 21.9462 13.574 22.6035 11.34 22.6C5.07686 22.6 0 17.5404 0 11.3C0 5.05928 5.07686 1.3831e-05 11.34 1.3831e-05C13.6615 1.3831e-05 15.8199 0.695591 17.6176 1.88837C17.5257 1.96339 17.4327 2.03747 17.3436 2.11437C16.0243 3.25673 14.9663 4.66787 14.2411 6.25251C13.516 7.83714 13.1404 9.55839 13.1399 11.3C13.1404 13.0415 13.516 14.7627 14.2412 16.3472C14.9664 17.9318 16.0243 19.3428 17.3436 20.485ZM59.3451 11.3487C59.3451 10.0281 60.2126 8.94334 61.6326 8.94334C62.9896 8.94334 63.9047 9.98105 63.9047 11.3487C63.9047 12.7163 62.9896 13.754 61.6326 13.754C60.2126 13.754 59.3451 12.6695 59.3451 11.3487ZM65.4507 11.3487V7.59142H63.8099V8.50295C63.2892 7.82715 62.5004 7.40277 61.4275 7.40277C59.3132 7.40277 57.657 9.05351 57.657 11.3487C57.657 13.6441 59.3132 15.2949 61.4275 15.2949C62.5004 15.2949 63.2892 14.8705 63.8099 14.1944V15.1065H65.4507V11.3487ZM120.861 11.3487C120.861 10.0281 121.729 8.94334 123.149 8.94334C124.505 8.94334 125.42 9.98105 125.42 11.3487C125.42 12.7163 124.505 13.754 123.149 13.754C121.729 13.754 120.861 12.6695 120.861 11.3487ZM128.802 14.7497V14.8677H128.912C128.932 14.8687 128.953 14.8635 128.971 14.8529C128.986 14.8432 128.993 14.8281 128.993 14.8077C128.994 14.7991 128.992 14.7906 128.988 14.7829C128.984 14.7753 128.978 14.7688 128.971 14.7641C128.953 14.7534 128.932 14.7484 128.912 14.7497H128.802ZM128.912 14.6665C128.969 14.6665 129.014 14.679 129.045 14.7045C129.075 14.7296 129.091 14.7644 129.091 14.8077C129.091 14.8246 129.088 14.8413 129.082 14.857C129.076 14.8726 129.066 14.8867 129.054 14.8984C129.025 14.9241 128.988 14.9396 128.949 14.9424L129.095 15.1094H128.981L128.846 14.9433H128.802V15.1094H128.707V14.6665H128.912ZM128.884 15.2616C128.933 15.2619 128.981 15.2525 129.026 15.2338C129.071 15.215 129.112 15.1875 129.146 15.1527C129.18 15.1181 129.208 15.0771 129.226 15.0319C129.245 14.9868 129.254 14.9384 129.254 14.8896C129.254 14.8382 129.244 14.7901 129.225 14.7446C129.206 14.7007 129.18 14.6606 129.146 14.6266C129.112 14.5932 129.072 14.5665 129.029 14.5478C128.983 14.5284 128.934 14.5186 128.884 14.5189C128.785 14.5183 128.689 14.557 128.618 14.6266C128.583 14.6612 128.556 14.7022 128.538 14.7474C128.519 14.7925 128.51 14.8409 128.51 14.8896C128.51 14.9384 128.519 14.9868 128.537 15.032C128.556 15.0771 128.583 15.1182 128.618 15.1527C128.689 15.2228 128.785 15.2619 128.884 15.2616ZM128.884 14.4129C128.98 14.4126 129.073 14.4401 129.152 14.4919C129.232 14.5437 129.295 14.6176 129.333 14.7045C129.359 14.7625 129.371 14.824 129.371 14.8896C129.371 14.9552 129.359 15.0168 129.333 15.0745C129.282 15.1889 129.189 15.2798 129.074 15.3288C129.014 15.3543 128.95 15.3673 128.884 15.3668C128.82 15.3675 128.756 15.3553 128.696 15.3311C128.636 15.3068 128.582 15.2709 128.536 15.2255C128.492 15.1822 128.457 15.131 128.432 15.0745C128.407 15.0162 128.394 14.9533 128.394 14.8896C128.394 14.824 128.407 14.7625 128.432 14.7045C128.457 14.6464 128.492 14.5958 128.536 14.5525C128.582 14.5075 128.636 14.4719 128.696 14.4479C128.756 14.424 128.82 14.412 128.884 14.4129ZM126.967 11.3487V4.57275H125.326V8.50295C124.805 7.82715 124.016 7.40277 122.943 7.40277C120.829 7.40277 119.173 9.05351 119.173 11.3487C119.173 13.6441 120.829 15.2949 122.943 15.2949C124.016 15.2949 124.805 14.8705 125.326 14.1944V15.1065H126.967V11.3487ZM85.8035 8.86486C86.8606 8.86486 87.5391 9.52497 87.7127 10.6886H83.7998C83.9733 9.60376 84.6361 8.86486 85.8035 8.86486ZM85.8353 7.40277C83.6262 7.40277 82.0802 9.00611 82.0802 11.3487C82.0802 13.7386 83.6892 15.2949 85.9455 15.2949C87.0817 15.2949 88.1228 15.0121 89.0382 14.2418L88.2334 13.0308C87.6021 13.5343 86.7976 13.8171 86.04 13.8171C84.9832 13.8171 84.0206 13.3296 83.784 11.9777H89.385C89.4008 11.773 89.4165 11.569 89.4165 11.3487C89.4008 9.00611 87.9496 7.40277 85.8353 7.40277ZM105.636 11.3487C105.636 10.0281 106.503 8.94334 107.923 8.94334C109.28 8.94334 110.196 9.98105 110.196 11.3487C110.196 12.7163 109.28 13.754 107.923 13.754C106.503 13.754 105.636 12.6695 105.636 11.3487ZM111.742 11.3487V7.59142H110.101V8.50295C109.58 7.82715 108.791 7.40277 107.718 7.40277C105.604 7.40277 103.947 9.05351 103.947 11.3487C103.947 13.6441 105.604 15.2949 107.718 15.2949C108.791 15.2949 109.58 14.8705 110.101 14.1944V15.1065H111.742V11.3487ZM96.3743 11.3487C96.3743 13.6284 97.9678 15.2949 100.398 15.2949C101.534 15.2949 102.291 15.0431 103.111 14.3987L102.322 13.0782C101.707 13.5186 101.06 13.754 100.35 13.754C99.041 13.7386 98.0784 12.7951 98.0784 11.3487C98.0784 9.90227 99.041 8.95903 100.35 8.94334C101.06 8.94334 101.707 9.17907 102.322 9.61945L103.111 8.29892C102.291 7.65419 101.534 7.40277 100.398 7.40277C97.9678 7.40277 96.3743 9.06921 96.3743 11.3487ZM117.516 7.40277C116.569 7.40277 115.954 7.84284 115.528 8.50295V7.59142H113.903V15.1065H115.544V10.8929C115.544 9.65084 116.08 8.95903 117.153 8.95903C117.485 8.95903 117.832 9.00611 118.179 9.14768L118.683 7.60711C118.321 7.46555 117.847 7.40277 117.516 7.40277ZM73.5604 8.18875C72.7713 7.66989 71.6827 7.40277 70.4838 7.40277C68.5746 7.40277 67.3438 8.3143 67.3438 9.8081C67.3438 11.0345 68.2592 11.7891 69.947 12.0248L70.7203 12.135C71.6197 12.2605 72.0455 12.4962 72.0455 12.9209C72.0455 13.5026 71.4461 13.8328 70.326 13.8328C69.1901 13.8328 68.3695 13.4712 67.817 13.0468L67.044 14.3203C67.9436 14.9804 69.0795 15.2949 70.3102 15.2949C72.4875 15.2949 73.7494 14.2729 73.7494 12.8425C73.7494 11.5216 72.7555 10.8298 71.1147 10.5941L70.3417 10.4839C69.6317 10.3897 69.0638 10.2482 69.0638 9.74532C69.0638 9.19476 69.6002 8.86486 70.4995 8.86486C71.4618 8.86486 72.3927 9.22646 72.8504 9.50928L73.5604 8.18875ZM94.7177 7.40277C93.7711 7.40277 93.1559 7.84284 92.7297 8.50295V7.59142H91.1046V15.1065H92.7454V10.8929C92.7454 9.65084 93.2819 8.95903 94.3551 8.95903C94.6862 8.95903 95.0333 9.00611 95.3804 9.14768L95.8854 7.60711C95.5225 7.46555 95.049 7.40277 94.7177 7.40277ZM80.7232 7.59142H78.0409V5.31164H76.3847V7.59142H74.8541V9.0849H76.3847V12.5123C76.3847 14.2572 77.0629 15.2949 79.0033 15.2949C79.7136 15.2949 80.5338 15.0748 81.0545 14.7132L80.5814 13.3142C80.0919 13.5971 79.5555 13.7386 79.1299 13.7386C78.3093 13.7386 78.0409 13.2355 78.0409 12.4806V9.0849H80.7232V7.59142ZM56.2051 15.1065V10.3897C56.2051 8.61312 55.0692 7.41846 53.2391 7.40277C52.2768 7.38707 51.2826 7.68558 50.5887 8.73899C50.068 7.90593 49.2474 7.40277 48.0958 7.40277C47.2909 7.40277 46.5022 7.6385 45.887 8.51896V7.59142H44.2458V15.1065H45.9027V10.94C45.9027 9.63515 46.6285 8.94334 47.7486 8.94334C48.8373 8.94334 49.3895 9.65084 49.3895 10.9243V15.1065H51.0461V10.94C51.0461 9.63515 51.8033 8.94334 52.892 8.94334C54.0121 8.94334 54.5485 9.65084 54.5485 10.9243V15.1065H56.2051ZM36.3425 18.3019V17.8634H36.2278L36.0955 18.1651L35.9632 17.8634H35.8486V18.3019H35.9295V17.9711L36.0536 18.2564H36.1377L36.2615 17.9705V18.3019H36.3425ZM35.6148 18.3019V17.9381H35.7619V17.8644H35.3871V17.9381H35.5345V18.3019H35.6148Z" fill="white"/>
</g>
<defs>
<clipPath id="clip0_78_139">
<rect width="129.465" height="22.6" fill="white"/>
</clipPath>
</defs>
</svg>
