<svg width="67" height="23" viewBox="0 0 67 23" fill="none" xmlns="http://www.w3.org/2000/svg">
<g opacity="0.6" clip-path="url(#clip0_78_130)">
<path fill-rule="evenodd" clip-rule="evenodd" d="M0.0078125 8.04427C0.0078125 14.8423 8.01426 14.5024 9.25469 14.9556C10.8334 15.5221 10.7207 18.3546 7.11212 18.3546C5.19509 18.3546 3.61635 18.128 1.81208 17.5615C1.36101 17.4482 0.909947 17.2216 0.45888 17.1083V22.2068C1.81208 22.8866 6.43552 22.9999 8.35256 22.9999C13.3143 22.9999 17.825 19.6009 16.5845 14.5024C15.3441 8.95068 8.12702 9.51718 7.11212 8.95068C5.87169 8.38417 5.87169 6.79797 7.22489 6.23146C9.02916 5.43836 12.6377 6.23146 14.442 6.79797C15.0058 7.02457 15.5696 7.25117 16.0207 7.36447V2.49255C15.2313 2.26595 14.7803 2.03935 13.2015 1.69945C10.9462 1.24624 10.0441 1.24624 7.78872 1.24624C3.72912 1.24624 0.0078125 3.96546 0.0078125 8.04427ZM18.1633 2.37925V22.7733H24.0271V16.6551C24.1399 16.8817 24.0271 16.7684 24.1399 16.995L24.7037 18.0147C24.9293 18.4679 25.1548 18.9211 25.3803 19.4876C25.6059 20.0541 26.2825 22.0935 26.2825 22.7733H33.3868C33.274 22.5467 33.1613 22.0935 33.0485 21.7536L31.6953 18.6945C28.8761 12.9162 29.44 15.9753 31.9208 11.1034C32.3719 10.4236 33.6123 7.81767 33.7251 6.91127H27.0718C26.8463 8.04427 24.7037 11.7832 24.0271 12.3497V1.24624C22.8995 1.24624 19.0654 2.37925 18.1633 2.37925ZM53.2337 2.26595V22.7733H58.8721V1.24624C57.97 1.24624 54.4742 2.15265 53.2337 2.26595ZM61.353 2.26595V22.7733H66.9913V1.24624C66.3147 1.24624 62.0296 2.26595 61.353 2.26595ZM34.4017 13.7093V22.7733H40.04V15.9753C40.04 12.8029 40.4911 11.5566 43.6486 11.5566V6.79797C42.6337 6.79797 43.5358 6.68467 41.8443 6.79797C40.1528 7.02457 38.9124 7.02457 37.1081 8.15757C35.5294 9.17728 34.4017 11.1034 34.4017 13.7093ZM45.3401 22.7733H50.9784V7.02457H45.3401V22.7733ZM45.4528 2.60585C45.4528 3.51225 45.5656 4.07876 46.2422 4.75856C48.7231 7.25117 52.6699 3.51225 50.0763 0.793041C48.3848 -1.01977 45.4528 0.56644 45.4528 2.60585Z" fill="white"/>
</g>
<defs>
<clipPath id="clip0_78_130">
<rect width="67" height="23" fill="white"/>
</clipPath>
</defs>
</svg>
