<svg width="78" height="24" viewBox="0 0 78 24" fill="none" xmlns="http://www.w3.org/2000/svg">
<g opacity="0.6" clip-path="url(#clip0_78_141)">
<path fill-rule="evenodd" clip-rule="evenodd" d="M27.5293 23.712L31.4428 0.423288H37.7853L33.8718 23.712H27.5293ZM56.678 0.964886C55.4635 0.558688 53.5742 0.0170898 51.0102 0.0170898C44.8026 0.0170898 40.4843 3.13128 40.3493 7.73486C40.3493 10.9844 43.5881 12.88 45.8822 13.9632C48.4462 15.1818 49.2559 15.8588 49.2559 16.942C49.2559 18.4314 47.2317 19.1084 45.4774 19.1084C42.9133 19.1084 41.5639 18.8376 39.5396 17.8898L38.595 17.619L37.7853 22.7642C39.2697 23.4412 41.9687 23.9828 44.8026 23.9828C51.4151 23.9828 55.7334 20.8686 55.8684 16.1296C55.8684 13.4216 54.114 11.3906 50.4704 9.76585C48.3113 8.68265 46.9618 8.00566 46.9618 6.92246C46.9618 5.97466 48.1763 4.89147 50.6054 4.89147C52.6296 4.89147 54.114 5.29767 55.3286 5.70387L55.8684 5.97466L56.678 0.964886ZM73.0068 0.423288H68.0137C66.5293 0.423288 65.4497 0.829486 64.7749 2.31888L55.3286 23.712H61.941C61.941 23.712 63.0206 20.8686 63.2905 20.1916H71.3874C71.6573 21.004 72.1971 23.712 72.1971 23.712H77.9998L73.0068 0.423288ZM65.1798 15.4526C65.7196 14.0986 67.6088 8.95345 67.6088 8.95345C67.6088 8.95345 68.1486 7.59946 68.5535 6.65166L68.9583 8.68265C68.9583 8.68265 70.1729 14.234 70.4428 15.4526H65.1798ZM22.1313 0.423288L16.0587 16.265L15.3839 13.0154C14.1694 9.35965 10.6607 5.29767 6.6123 3.26668L12.2801 23.712H18.8926L28.8787 0.423288H22.1313Z" fill="white"/>
<path fill-rule="evenodd" clip-rule="evenodd" d="M10.2561 0.42334H0.134948L0 0.964938C7.96194 2.86053 13.2249 7.46411 15.3841 13.0155L13.09 2.45433C12.8201 0.964938 11.6055 0.42334 10.2561 0.42334Z" fill="white"/>
</g>
<defs>
<clipPath id="clip0_78_141">
<rect width="78" height="24" fill="white"/>
</clipPath>
</defs>
</svg>
